<svg width="30" height="31" viewBox="0 0 30 31" fill="none" xmlns="http://www.w3.org/2000/svg">
<path d="M0 10.4083C0 4.88542 4.47715 0.408264 10 0.408264H20C25.5228 0.408264 30 4.88542 30 10.4083V20.4083C30 25.9311 25.5228 30.4083 20 30.4083H10C4.47715 30.4083 0 25.9311 0 20.4083V10.4083Z" fill="white"/>
<path d="M28.1263 15.6998C28.1263 14.6206 28.0369 13.8331 27.8436 13.0164H15.2692V17.8872H22.6501C22.5013 19.0977 21.6977 20.9206 19.912 22.1455L19.887 22.3086L23.8627 25.327L24.1382 25.3539C26.6679 23.0643 28.1263 19.6956 28.1263 15.6998Z" fill="#4285F4"/>
<path d="M15.2684 28.5333C18.8844 28.5333 21.92 27.3665 24.1374 25.3541L19.9112 22.1456C18.7802 22.9186 17.2623 23.4581 15.2684 23.4581C11.7267 23.4581 8.7208 21.1686 7.64928 18.004L7.49221 18.0171L3.35814 21.1525L3.30408 21.2998C5.50643 25.5873 10.0302 28.5333 15.2684 28.5333Z" fill="#34A853"/>
<path d="M7.65009 18.0041C7.36736 17.1874 7.20373 16.3123 7.20373 15.4082C7.20373 14.504 7.36736 13.629 7.63521 12.8124L7.62772 12.6385L3.44183 9.45267L3.30488 9.51651C2.39718 11.2957 1.87634 13.2937 1.87634 15.4082C1.87634 17.5228 2.39718 19.5207 3.30488 21.2998L7.65009 18.0041Z" fill="#FBBC05"/>
<path d="M15.2684 7.35823C17.7833 7.35823 19.4797 8.42281 20.447 9.31245L24.2267 5.69576C21.9054 3.58119 18.8844 2.28326 15.2684 2.28326C10.0303 2.28326 5.50644 5.22907 3.30408 9.51654L7.63442 12.8124C8.72083 9.64784 11.7268 7.35823 15.2684 7.35823Z" fill="#EB4335"/>
</svg>
