<svg width="477" height="17" viewBox="0 0 477 17" fill="none" xmlns="http://www.w3.org/2000/svg">
<line x1="0.996377" y1="9.89618" x2="226.999" y2="9.41738" stroke="black"/>
<line x1="258" y1="9.5" x2="477" y2="9.5" stroke="black"/>
<path d="M238.396 14.07C237.687 14.07 237.047 13.9113 236.478 13.594C235.909 13.2673 235.461 12.8193 235.134 12.25C234.807 11.6807 234.644 11.0367 234.644 10.318C234.644 9.59933 234.807 8.95533 235.134 8.386C235.461 7.81667 235.909 7.37333 236.478 7.056C237.047 6.73867 237.687 6.58 238.396 6.58C239.105 6.58 239.745 6.73867 240.314 7.056C240.883 7.37333 241.327 7.81667 241.644 8.386C241.971 8.95533 242.134 9.59933 242.134 10.318C242.134 11.0367 241.971 11.6807 241.644 12.25C241.327 12.8193 240.883 13.2673 240.314 13.594C239.745 13.9113 239.105 14.07 238.396 14.07ZM238.396 13.188C238.919 13.188 239.385 13.0713 239.796 12.838C240.216 12.5953 240.543 12.2547 240.776 11.816C241.009 11.3773 241.126 10.878 241.126 10.318C241.126 9.758 241.009 9.25867 240.776 8.82C240.543 8.38133 240.216 8.04533 239.796 7.812C239.385 7.56933 238.919 7.448 238.396 7.448C237.873 7.448 237.402 7.56933 236.982 7.812C236.571 8.04533 236.245 8.38133 236.002 8.82C235.769 9.25867 235.652 9.758 235.652 10.318C235.652 10.878 235.769 11.3773 236.002 11.816C236.245 12.2547 236.571 12.5953 236.982 12.838C237.402 13.0713 237.873 13.188 238.396 13.188ZM245.115 8.078C245.349 7.58333 245.694 7.21 246.151 6.958C246.618 6.706 247.192 6.58 247.873 6.58V7.546L247.635 7.532C246.861 7.532 246.254 7.77 245.815 8.246C245.377 8.722 245.157 9.38933 245.157 10.248V14H244.163V6.636H245.115V8.078Z" fill="black"/>
</svg>
