<svg width="330" height="652" viewBox="0 0 330 652" fill="none" xmlns="http://www.w3.org/2000/svg">
<rect width="162.49" height="164.504" transform="matrix(-0.00152599 0.999999 -0.999999 -0.00148886 330 0.489868)" fill="#EEEDED"/>
<rect width="163.125" height="164.504" transform="matrix(-0.00152599 0.999999 -0.999999 -0.00148886 329.752 162.979)" fill="#ACEF1D"/>
<rect width="162.49" height="164.504" transform="matrix(-0.00152599 0.999999 -0.999999 -0.00148886 329.503 326.104)" fill="#ACEF1D"/>
<rect width="162.49" height="164.504" transform="matrix(-0.00152599 0.999999 -0.999999 -0.00148886 329.255 488.594)" fill="#EEEDED"/>
<rect width="162.49" height="164.504" transform="matrix(-0.00152599 0.999999 -0.999999 -0.00148886 165.496 0.244934)" fill="#ACEF1D"/>
<rect width="163.125" height="164.504" transform="matrix(-0.00152599 0.999999 -0.999999 -0.00148886 165.752 162.245)" fill="#EEEDED"/>
<rect width="162.49" height="164.504" transform="matrix(-0.00152599 0.999999 -0.999999 -0.00148886 165 325.859)" fill="#EEEDED"/>
<rect width="162.49" height="164.504" transform="matrix(-0.00152599 0.999999 -0.999999 -0.00148886 164.751 488.349)" fill="#ACEF1D"/>
<rect width="34.8317" height="91.3322" transform="matrix(-0.00152599 0.999999 -0.999999 -0.00148886 128.653 226.657)" fill="#ACEF1D"/>
<rect width="35.2634" height="90.2141" transform="matrix(-0.999999 -0.0014889 0.00152604 -0.999999 100.523 289.138)" fill="#ACEF1D"/>
<rect width="112.855" height="13.4001" transform="matrix(-0.00152599 0.999999 -0.999999 -0.00148886 138.69 351.021)" fill="#ACEF1D"/>
<rect width="112.855" height="13.4001" transform="matrix(-0.00152599 0.999999 -0.999999 -0.00148886 113.653 350.984)" fill="#ACEF1D"/>
<rect width="61.6521" height="13.4001" transform="matrix(-0.00152599 0.999999 -0.999999 -0.00148886 88.616 350.947)" fill="#ACEF1D"/>
<rect width="77.3264" height="13.4001" transform="matrix(-0.00152599 0.999999 -0.999999 -0.00148886 63.5786 350.909)" fill="#ACEF1D"/>
<rect width="36.225" height="13.4001" transform="matrix(-0.00152599 0.999999 -0.999999 -0.00148886 38.5417 350.872)" fill="#ACEF1D"/>
<path d="M77.8417 592.949L48.9851 553.553L106.818 553.639L77.8417 592.949Z" fill="#EEEDED"/>
<path d="M329.503 326.104L164.999 325.859L165.248 162.735L329.503 326.104Z" fill="#EEEDED"/>
<path d="M182.912 488.324C182.965 453.505 211.585 425.321 246.835 425.374C282.086 425.426 310.619 453.695 310.566 488.514L182.912 488.324Z" fill="#EEEDED"/>
<path d="M310.566 488.514C310.512 523.333 281.893 551.517 246.643 551.464C211.392 551.412 182.859 523.143 182.912 488.324L310.566 488.514Z" fill="#ACEF1D"/>
<path d="M80.5504 81.3635L1.38755 162.491L1.6355 0.000976562L80.5504 81.3635Z" fill="#EEEDED"/>
<ellipse rx="35.5447" ry="35.9852" transform="matrix(-0.00152599 0.999999 -0.999999 -0.00148886 247.624 81.6122)" fill="#ACEF1D"/>
</svg>
